<?xml version="1.0" encoding="utf-8"?>
<!-- Generator: Adobe Illustrator 22.0.1, SVG Export Plug-In . SVG Version: 6.00 Build 0)  -->
<svg version="1.1" id="Layer_1" xmlns="http://www.w3.org/2000/svg" xmlns:xlink="http://www.w3.org/1999/xlink" x="0px" y="0px"
	 viewBox="0 0 36 36" style="enable-background:new 0 0 36 36;" xml:space="preserve">
<style type="text/css">
	.st0{fill:none;}
	.st1{fill:#98BAD8;}
</style>
<path class="st0" d="M0,0h36v36H0V0z"/>
<path class="st1" d="M18,3C9.7,3,3,9.7,3,18s6.7,15,15,15s15-6.7,15-15S26.3,3,18,3z M16.5,29.9C10.6,29.2,6,24.1,6,18
	c0-0.9,0.1-1.8,0.3-2.7l7.2,7.2V24c0,1.7,1.3,3,3,3V29.9z M26.8,26.1C26.5,24.9,25.3,24,24,24h-1.5v-4.5c0-0.8-0.7-1.5-1.5-1.5h-9
	v-3h3c0.8,0,1.5-0.7,1.5-1.5v-3h3c1.7,0,3-1.4,3-3V6.9C26.9,8.7,30,13,30,18C30,21.1,28.8,24,26.8,26.1z"/>
</svg>
