<?xml version="1.0" encoding="utf-8"?>
<!-- Generator: Adobe Illustrator 22.0.1, SVG Export Plug-In . SVG Version: 6.00 Build 0)  -->
<svg version="1.1" id="Logo_FIXED" xmlns="http://www.w3.org/2000/svg" xmlns:xlink="http://www.w3.org/1999/xlink" x="0px" y="0px"
	 viewBox="0 0 32 32" style="enable-background:new 0 0 32 32;" xml:space="preserve">
<style type="text/css">
	.st0{fill:none;}
	.st1{fill:#587CA3;}
</style>
<title>Twitter_Logo_Blue</title>
<rect x="-184" y="-184" class="st0" width="400" height="400"/>
<path class="st1" d="M10.1,29c12.1,0,18.7-10,18.7-18.7c0-0.3,0-0.6,0-0.8C30,8.6,31.1,7.4,32,6.1c-1.2,0.5-2.5,0.9-3.8,1
	c1.4-0.8,2.4-2.1,2.9-3.6c-1.3,0.8-2.7,1.3-4.2,1.6c-2.5-2.6-6.6-2.8-9.3-0.3c-1.7,1.6-2.4,4-1.9,6.3C10.5,10.8,5.6,8.3,2.2,4.2
	c-1.7,3-0.9,6.8,2,8.8c-1,0-2.1-0.3-3-0.8c0,0,0,0.1,0,0.1c0,3.1,2.2,5.8,5.3,6.4c-1,0.3-2,0.3-3,0.1c0.9,2.7,3.3,4.5,6.1,4.6
	c-2.3,1.8-5.2,2.8-8.2,2.8c-0.5,0-1,0-1.6-0.1C3,28,6.5,29,10.1,29"/>
</svg>
