<?xml version="1.0" encoding="utf-8"?>
<!-- Generator: Adobe Illustrator 22.0.1, SVG Export Plug-In . SVG Version: 6.00 Build 0)  -->
<svg version="1.1" id="Layer_1" xmlns="http://www.w3.org/2000/svg" xmlns:xlink="http://www.w3.org/1999/xlink" x="0px" y="0px"
	 viewBox="0 0 50 50" style="enable-background:new 0 0 50 50;" xml:space="preserve">
<style type="text/css">
	.st0{fill:#587CA3;}
</style>
<g>
	<g>
		<path class="st0" d="M21,0H3.1v50H21c15.6,0,25.9-10.5,25.9-25C46.9,10.6,36.5,0,21,0z M27.8,39.6c-1.3,1.7-3.6,3-7.4,3.4
			c0,0,0,0-0.1,0c-0.7,0.1-1.4,0.1-2.1,0.1c-2.8,0-5.4-0.5-7.6-1.3V26.5c2.1,0.7,4.4,1.2,6.5,1.7c6.3,1.5,12,2.9,12,7.7
			C29.1,37.2,28.7,38.4,27.8,39.6z M38.9,28c-0.3,2.5-1.1,4.9-2.3,6.9c-0.1-2.9-1-5.2-2.6-6.9c-3.3-3.9-9.5-5.4-15-6.8
			c-3.3-0.8-6.4-1.5-8.5-2.7v-12H21c5.2,0,9.3,1.6,12.4,4.2c0.3,0.3,0.7,0.6,1,0.9c3.2,3.3,4.9,8,4.9,13.3
			C39.2,26.1,39.1,27.1,38.9,28z"/>
	</g>
</g>
</svg>
